<mxfile host="app.diagrams.net" agent="Mozilla/5.0 (X11; Linux x86_64; rv:133.0) Gecko/20100101 Firefox/133.0" version="26.0.2">
  <diagram name="Page-1" id="iznS3WTEnrgCJEwglaZE">
    <mxGraphModel dx="1414" dy="737" grid="1" gridSize="10" guides="1" tooltips="1" connect="1" arrows="1" fold="1" page="1" pageScale="1" pageWidth="850" pageHeight="1100" math="0" shadow="0">
      <root>
        <mxCell id="0" />
        <mxCell id="1" parent="0" />
        <mxCell id="GHctPd2nhJIln76riw79-8" style="rounded=0;orthogonalLoop=1;jettySize=auto;html=1;exitX=1;exitY=0.25;exitDx=0;exitDy=0;entryX=0;entryY=1;entryDx=0;entryDy=0;" edge="1" parent="1" source="GHctPd2nhJIln76riw79-1" target="GHctPd2nhJIln76riw79-3">
          <mxGeometry relative="1" as="geometry" />
        </mxCell>
        <mxCell id="GHctPd2nhJIln76riw79-11" value="Tasks" style="edgeLabel;html=1;align=center;verticalAlign=middle;resizable=0;points=[];" vertex="1" connectable="0" parent="GHctPd2nhJIln76riw79-8">
          <mxGeometry x="-0.1221" y="-1" relative="1" as="geometry">
            <mxPoint as="offset" />
          </mxGeometry>
        </mxCell>
        <mxCell id="GHctPd2nhJIln76riw79-1" value="Agent" style="rounded=0;whiteSpace=wrap;html=1;" vertex="1" parent="1">
          <mxGeometry x="170" y="410" width="120" height="60" as="geometry" />
        </mxCell>
        <mxCell id="GHctPd2nhJIln76riw79-5" style="edgeStyle=orthogonalEdgeStyle;rounded=0;orthogonalLoop=1;jettySize=auto;html=1;exitX=0.5;exitY=1;exitDx=0;exitDy=0;" edge="1" parent="1" source="GHctPd2nhJIln76riw79-2" target="GHctPd2nhJIln76riw79-1">
          <mxGeometry relative="1" as="geometry" />
        </mxCell>
        <mxCell id="GHctPd2nhJIln76riw79-7" value="Create" style="edgeLabel;html=1;align=center;verticalAlign=middle;resizable=0;points=[];" vertex="1" connectable="0" parent="GHctPd2nhJIln76riw79-5">
          <mxGeometry x="-0.1111" y="2" relative="1" as="geometry">
            <mxPoint as="offset" />
          </mxGeometry>
        </mxCell>
        <mxCell id="GHctPd2nhJIln76riw79-2" value="&lt;div&gt;Server&lt;/div&gt;&lt;div&gt;listener&lt;br&gt;&lt;/div&gt;" style="rounded=0;whiteSpace=wrap;html=1;" vertex="1" parent="1">
          <mxGeometry x="170" y="260" width="120" height="60" as="geometry" />
        </mxCell>
        <mxCell id="GHctPd2nhJIln76riw79-4" style="edgeStyle=orthogonalEdgeStyle;rounded=0;orthogonalLoop=1;jettySize=auto;html=1;exitX=0;exitY=0.5;exitDx=0;exitDy=0;entryX=1;entryY=0.5;entryDx=0;entryDy=0;" edge="1" parent="1" source="GHctPd2nhJIln76riw79-3" target="GHctPd2nhJIln76riw79-2">
          <mxGeometry relative="1" as="geometry" />
        </mxCell>
        <mxCell id="GHctPd2nhJIln76riw79-6" value="Execute payload" style="edgeLabel;html=1;align=center;verticalAlign=middle;resizable=0;points=[];" vertex="1" connectable="0" parent="GHctPd2nhJIln76riw79-4">
          <mxGeometry x="0.1158" y="-4" relative="1" as="geometry">
            <mxPoint as="offset" />
          </mxGeometry>
        </mxCell>
        <mxCell id="GHctPd2nhJIln76riw79-10" style="rounded=0;orthogonalLoop=1;jettySize=auto;html=1;exitX=0.5;exitY=1;exitDx=0;exitDy=0;entryX=1;entryY=0.75;entryDx=0;entryDy=0;" edge="1" parent="1" source="GHctPd2nhJIln76riw79-3" target="GHctPd2nhJIln76riw79-1">
          <mxGeometry relative="1" as="geometry" />
        </mxCell>
        <mxCell id="GHctPd2nhJIln76riw79-12" value="Results" style="edgeLabel;html=1;align=center;verticalAlign=middle;resizable=0;points=[];" vertex="1" connectable="0" parent="GHctPd2nhJIln76riw79-10">
          <mxGeometry x="0.0675" y="-1" relative="1" as="geometry">
            <mxPoint as="offset" />
          </mxGeometry>
        </mxCell>
        <mxCell id="GHctPd2nhJIln76riw79-3" value="Victim " style="rounded=0;whiteSpace=wrap;html=1;" vertex="1" parent="1">
          <mxGeometry x="480" y="260" width="120" height="60" as="geometry" />
        </mxCell>
      </root>
    </mxGraphModel>
  </diagram>
</mxfile>
